<svg xmlns="http://www.w3.org/2000/svg" width="115" height="115" viewBox="0 0 115 115" fill="none">
  <path d="M57.496 114.992C25.7934 114.992 0 89.1987 0 57.496C0 25.7933 25.7934 0 57.496 0C89.1987 0 115 25.7933 115 57.496C115 89.1987 89.2067 115 57.496 115V114.992ZM57.496 2.68315C27.2707 2.68315 2.68315 27.2707 2.68315 57.496C2.68315 87.7213 27.2707 112.309 57.488 112.309C87.7054 112.309 112.301 87.7213 112.301 57.496C112.301 27.2707 87.7134 2.68315 57.496 2.68315Z" fill="white"/>
  <path d="M57.4963 100.682C33.6833 100.682 14.3184 81.3094 14.3184 57.4964C14.3184 33.6835 33.6913 14.3105 57.4963 14.3105C81.3012 14.3105 100.682 33.6835 100.682 57.4964C100.682 81.3094 81.3092 100.682 57.4963 100.682ZM57.4963 16.9777C35.1607 16.9777 16.9855 35.1529 16.9855 57.4964C16.9855 79.84 35.1607 98.0152 57.4963 98.0152C79.8319 98.0152 98.015 79.84 98.015 57.4964C98.015 35.1529 79.8399 16.9777 57.4963 16.9777Z" fill="white"/>
  <path d="M57.5117 97.8229L56.9766 97.5913C55.8746 97.1202 30.0254 85.7887 30.0254 65.2658V28.3965H84.9101V65.9286C84.9101 85.605 59.1327 97.1202 58.0387 97.5993L57.5037 97.8309L57.5117 97.8229ZM32.7165 65.2658C32.7165 82.4827 53.8463 93.1594 57.5037 94.8763C61.1611 93.1354 82.235 82.3629 82.235 65.9126V31.0716H32.7165V65.2658Z" fill="white"/>
  <path d="M45.3896 49.9898L44.7348 49.6065C44.615 49.5346 41.8121 47.8896 39.9275 46.6278C38.3384 45.5658 37.5238 44.4318 37.436 43.1781C37.42 42.9146 37.42 37.8996 37.42 33.7392V32.3976H53.487V33.7392C53.503 39.8002 53.503 42.9705 53.487 43.1701C53.4471 44.4478 52.6725 45.5817 51.1153 46.6278C49.2147 47.8976 46.1882 49.5585 46.0604 49.6224L45.3976 49.9818L45.3896 49.9898ZM40.1032 35.0887C40.1032 38.4906 40.1032 42.691 40.1112 43.0024C40.1271 43.2579 40.4785 43.769 41.4208 44.3919C42.6985 45.2463 44.4873 46.3244 45.4375 46.8914C46.4357 46.3324 48.3363 45.2463 49.622 44.3919C49.9733 44.1603 50.7879 43.5614 50.8038 43.0823C50.8198 42.675 50.8118 38.4746 50.8038 35.0807H40.1032V35.0887Z" fill="white"/>
  <path d="M70.2091 49.9262L69.5543 49.5429C69.4345 49.471 66.6315 47.834 64.747 46.5723C63.1578 45.5022 62.3353 44.3762 62.2475 43.1225C62.2315 42.9149 62.2235 39.7446 62.2315 33.6836V32.342H78.2985V33.6836C78.3144 39.7446 78.3144 42.9149 78.2985 43.1145C78.2665 44.3842 77.4919 45.5182 75.9347 46.5643C74.0342 47.834 70.9996 49.487 70.8719 49.5589L70.2091 49.9182V49.9262ZM64.9226 35.0252C64.9226 38.419 64.9226 42.6114 64.9306 42.9389C64.9466 43.2024 65.3059 43.7055 66.2403 44.3363C67.5179 45.1908 69.2987 46.2688 70.249 46.8358C71.2472 46.2768 73.1558 45.1988 74.4334 44.3363C74.7848 44.1047 75.5993 43.5058 75.6073 43.0347C75.6233 42.6194 75.6153 38.427 75.6073 35.0252H64.9067H64.9226Z" fill="white"/>
  <path d="M83.9601 50.9394H30.2412V53.5986H83.9601V50.9394Z" fill="white"/>
  <path d="M57.4243 83.6319C56.5219 83.6319 56.0028 82.9931 55.7234 82.6497C55.4199 82.2744 55.2841 82.1706 54.7731 82.1546C53.3117 82.1546 52.2416 82.2504 51.0039 82.3622C49.7901 82.474 48.4086 82.6018 46.4521 82.6417C44.5116 82.6976 43.0103 82.6098 42.9465 82.6018L41.6768 82.5299V57.3674L42.9944 57.3355C43.3937 57.3275 43.8488 57.3275 44.3839 57.3355C45.1665 57.3355 46.1167 57.3355 47.3146 57.3115C48.2329 57.2876 49.303 57.1758 50.5407 57.04C51.2594 56.9602 52.034 56.8803 52.8645 56.8085C54.5974 56.6088 56.1705 56.9362 56.2344 56.9522C56.7136 57.064 57.1208 57.2157 57.4642 57.3914C57.7996 57.2237 58.1989 57.072 58.67 56.9602C58.7659 56.9362 60.339 56.6168 62.1038 56.8164C62.9104 56.8883 63.685 56.9682 64.4116 57.048C65.6494 57.1838 66.7195 57.2956 67.6218 57.3195C68.8277 57.3515 69.7779 57.3435 70.5525 57.3435C71.0956 57.3435 71.5507 57.3435 71.942 57.3435L73.2517 57.3754V82.5379L71.9899 82.6098C71.9261 82.6098 70.4168 82.6976 68.4843 82.6497C66.5278 82.6098 65.1463 82.482 63.9325 82.3702C62.6947 82.2584 61.6167 82.1626 60.1633 82.1626C59.5724 82.1706 59.4286 82.3143 59.0933 82.6976C58.7898 83.049 58.2787 83.6319 57.4083 83.6319H57.4243ZM54.7811 79.4795H54.8609C56.1865 79.4795 56.9691 80.0624 57.4482 80.5495C57.9433 80.0544 58.7419 79.4874 60.0994 79.4795C61.7445 79.4795 62.9263 79.5833 64.196 79.703C65.4258 79.8148 66.6955 79.9266 68.5641 79.9746C69.3307 79.9905 70.0335 79.9905 70.5925 79.9746V60.0266C70.4248 60.0266 70.2491 60.0266 70.0654 60.0266C69.3707 60.0266 68.5482 60.0266 67.5739 60.0027C66.5518 59.9787 65.4338 59.8589 64.1401 59.7232C63.4294 59.6513 62.6708 59.5635 61.8483 59.4916C60.4907 59.3399 59.2769 59.5794 59.261 59.5874C58.5582 59.7471 58.3426 60.0426 58.3346 60.0506L57.5441 59.6274L56.7215 60.1065C56.7215 60.1065 56.4261 59.7551 55.6675 59.5794C55.6675 59.5794 54.4537 59.3399 53.144 59.4916C52.2976 59.5635 51.5389 59.6513 50.8362 59.7232C49.5345 59.8589 48.4166 59.9787 47.3864 60.0027C46.1567 60.0346 45.1824 60.0266 44.3839 60.0266C44.3839 60.0266 44.3759 60.0266 44.3679 60.0266V79.9746C44.9189 79.9825 45.6216 79.9905 46.3962 79.9746C48.2648 79.9346 49.5345 79.8148 50.7643 79.703C52.0181 79.5912 53.1999 79.4795 54.7811 79.4795Z" fill="white"/>
  <path d="M52.0419 37.6522H38.7619V39.8881H52.0419V37.6522Z" fill="white"/>
  <path d="M52.0417 37.4277H38.7617V40.1109H52.0417V37.4277Z" fill="white"/>
  <path d="M58.5023 51.4112H56.2664V96.5855H58.5023V51.4112Z" fill="white"/>
  <path d="M58.3911 51.4112H56.3787V96.5855H58.3911V51.4112Z" fill="white"/>
  <path d="M75.9268 42.4996L70.0334 38.5707L64.6192 42.4757L63.3096 40.6629L69.9775 35.8477L77.1725 40.639L75.9268 42.4996Z" fill="white"/>
  <path d="M75.9914 42.6833L70.2258 38.8423L64.9394 42.6594L63.3662 40.4793L70.1619 35.5762L77.4847 40.4553L75.9914 42.6833Z" fill="white"/>
  <path d="M68.0685 64.0681L64.6826 63.9803C64.1476 63.9643 63.5327 63.9004 62.822 63.8286L61.6721 63.7088C61.4564 63.6848 61.2568 63.6848 61.0811 63.6928L61.0332 62.2794C61.2808 62.2714 61.5443 62.2794 61.8158 62.3033L62.9737 62.4231C63.6365 62.495 64.2194 62.5589 64.7225 62.5668L68.1004 62.6547L68.0685 64.0681Z" fill="white"/>
  <path d="M68.0693 68.3729L64.6914 68.2851C64.1564 68.2691 63.5415 68.2052 62.8387 68.1334C62.4794 68.0934 62.0961 68.0535 61.6808 68.0136C61.4652 67.9896 61.2656 67.9816 61.0899 67.9896L61.042 66.5762C61.2816 66.5762 61.5531 66.5762 61.8246 66.6081C62.2398 66.648 62.6311 66.688 62.9985 66.7279C63.6613 66.7998 64.2282 66.8636 64.7313 66.8716L68.1092 66.9595L68.0773 68.3729H68.0693Z" fill="white"/>
  <path d="M68.0686 72.6841C67.7732 72.6841 67.0625 72.6601 66.2959 72.6442L64.6828 72.6042C64.1637 72.5963 63.5648 72.5324 62.8701 72.4605C62.5027 72.4206 62.1034 72.3806 61.6722 72.3407C61.4566 72.3168 61.249 72.3088 61.0733 72.3168L61.0254 70.9033C61.265 70.9033 61.5365 70.9033 61.808 70.9353C62.2312 70.9752 62.6385 71.0151 63.0218 71.055C63.6606 71.1269 64.2196 71.1828 64.7147 71.1908L66.3438 71.2307C67.0944 71.2547 67.8051 71.2707 68.0926 71.2786L68.0686 72.6921V72.6841Z" fill="white"/>
  <path d="M68.0693 76.9969C67.5502 76.989 65.7535 76.941 64.6834 76.9091C64.1564 76.8931 63.5415 76.8293 62.8387 76.7574C62.4794 76.7175 62.0961 76.6775 61.6808 76.6376C61.4652 76.6136 61.2656 76.6057 61.0899 76.6136L61.042 75.2002C61.2816 75.2002 61.5531 75.2002 61.8246 75.2321C62.2398 75.2721 62.6311 75.312 62.9985 75.3519C63.6613 75.4238 64.2282 75.4877 64.7313 75.4957C65.8014 75.5276 67.5981 75.5755 68.1092 75.5835L68.0773 76.9969H68.0693Z" fill="white"/>
  <path d="M46.8191 64.0358L46.7871 62.6223L50.165 62.5345C50.6841 62.5265 51.275 62.4626 51.9618 62.3908L53.0797 62.279C53.3273 62.247 53.5828 62.239 53.8064 62.247L53.7745 63.6605C53.6148 63.6605 53.4151 63.6605 53.2235 63.6844L52.1055 63.7962C51.3708 63.8761 50.74 63.94 50.189 63.9479L46.8111 64.0358H46.8191Z" fill="white"/>
  <path d="M46.8191 68.3397L46.7871 66.9263L50.165 66.8384C50.6761 66.8225 51.259 66.7586 51.9378 66.6867L53.0797 66.5669C53.3433 66.543 53.5908 66.543 53.8144 66.543L53.7665 67.9564C53.5908 67.9564 53.3992 67.9564 53.2075 67.9724L52.0895 68.0842C51.3708 68.164 50.7479 68.2279 50.1969 68.2439L46.8111 68.3317L46.8191 68.3397Z" fill="white"/>
  <path d="M46.8191 72.6445L46.7952 71.2311C47.2264 71.2311 48.5759 71.1911 49.63 71.1592L50.1731 71.1432C50.6761 71.1432 51.2431 71.0793 51.8899 71.0075C52.2653 70.9676 52.6645 70.9276 53.0958 70.8877C53.3353 70.8637 53.5909 70.8478 53.8145 70.8637L53.7905 72.2772C53.6228 72.2772 53.4312 72.2772 53.2395 72.3011C52.8003 72.3411 52.409 72.381 52.0497 72.4209C51.3469 72.4928 50.74 72.5567 50.213 72.5647L49.6779 72.5806C48.6239 72.6126 47.2663 72.6445 46.8271 72.6525L46.8191 72.6445Z" fill="white"/>
  <path d="M46.8191 76.9651L46.7952 75.5517C47.2264 75.5517 48.5759 75.5117 49.63 75.4798L50.1731 75.4638C50.6841 75.4479 51.2671 75.384 51.9459 75.3121L53.0878 75.1923C53.3274 75.1684 53.5749 75.1524 53.8065 75.1684L53.7825 76.5818C53.6068 76.5818 53.4232 76.5818 53.2315 76.6058L52.0976 76.7256C51.3789 76.8054 50.756 76.8693 50.205 76.8853L49.67 76.9012C48.6159 76.9332 47.2583 76.9651 46.8191 76.9731V76.9651Z" fill="white"/>
  <path d="M41.9649 60.963H39.0422V64.1732H41.9649V60.963Z" fill="white"/>
  <path d="M42.1246 68.3887H39.0422V71.5989H42.1246V68.3887Z" fill="white"/>
  <path d="M41.9649 75.0323H39.0422V78.2345H41.9649V75.0323Z" fill="white"/>
  <path d="M75.6231 61.5928H72.7004V64.7951H75.6231V61.5928Z" fill="white"/>
  <path d="M75.7828 69.0196H72.7004V72.2298H75.7828V69.0196Z" fill="white"/>
  <path d="M75.6231 75.6553H72.7004V78.8655H75.6231V75.6553Z" fill="white"/>
  <path d="M12.362 51.9701C12.4579 52.5371 12.5377 53.144 12.4978 53.7269C12.3461 56.1945 10.9805 57.8315 8.36927 57.6638C5.72605 57.4961 4.33656 55.8112 4.50426 53.2238C4.5362 52.7207 4.67994 52.0579 4.93548 51.5149L6.23713 51.7066C5.86979 52.2656 5.75799 52.7846 5.72605 53.3276C5.63022 54.9008 6.78014 55.9549 8.36927 56.0587C9.94242 56.1625 11.1882 55.2681 11.284 53.6471C11.3239 53.0482 11.2361 52.3295 11.0684 51.9541L12.37 51.9701H12.362Z" fill="white"/>
  <path d="M6.31691 43.5295C6.97173 41.2216 8.91222 40.3832 11.1721 41.022C13.4241 41.6608 14.6858 43.4017 14.023 45.7175C13.3522 48.0732 11.4117 48.8718 9.12783 48.217C6.84396 47.5622 5.65411 45.8612 6.3249 43.5215L6.31691 43.5295ZM12.8411 45.3901C13.2723 43.8888 12.0745 42.9385 10.7249 42.5632C9.40732 42.1879 7.89805 42.4035 7.48281 43.8728C7.06756 45.3342 8.24143 46.3164 9.55905 46.6917C10.9006 47.0751 12.4179 46.9074 12.8491 45.3981L12.8411 45.3901Z" fill="white"/>
  <path d="M9.39102 35.5195L10.1656 34.0661C10.9322 32.6127 11.8027 30.8639 13.7032 31.8701C14.5018 32.3013 14.8851 33.1877 14.5497 34.106L14.5657 34.122C14.7893 33.7707 15.2764 33.7547 15.6517 33.7786L18.9018 34.122L18.1033 35.6313L15.5399 35.3039C14.925 35.224 14.6375 35.2959 14.3341 35.8629L14.1025 36.3021L16.9374 37.8193L16.2187 39.1769L9.38303 35.5355L9.39102 35.5195ZM13.0244 35.7271L13.264 35.2799C13.6234 34.6171 13.9268 33.7946 13.0724 33.3474C12.2498 32.9082 11.7787 33.6269 11.4193 34.2977L11.1798 34.7449L13.0244 35.7271Z" fill="white"/>
  <path d="M14.6223 26.6792L15.8281 25.2338L22.1447 26.6872L22.1607 26.6712L17.7047 22.9739L18.639 21.8399L24.6042 26.783L23.4144 28.2204L17.0898 26.775L17.0739 26.791L21.5298 30.4883L20.5955 31.6142L14.6383 26.6712L14.6223 26.6792Z" fill="white"/>
  <path d="M22.384 18.2628L25.8737 15.42L26.6483 16.3623L24.3405 18.2389L25.5463 19.7242L27.6625 17.9993L28.4291 18.9416L26.3129 20.6665L27.6865 22.3514L30.0103 20.4589L30.7769 21.4012L27.2632 24.26L22.3761 18.2548L22.384 18.2628Z" fill="white"/>
  <path d="M29.9787 12.6806L31.3123 11.922L34.5145 17.6077L37.0939 16.1543L37.6928 17.2164L33.7719 19.4204L29.9787 12.6726V12.6806Z" fill="white"/>
  <path d="M37.8441 8.73593L39.2815 8.21687L41.5015 14.3498L44.2885 13.3436L44.7037 14.4855L40.4714 16.0188L37.8362 8.73593H37.8441Z" fill="white"/>
  <path d="M50.1897 5.36599L51.7149 5.23822L52.0822 9.69416C52.194 11.0038 52.6812 11.8423 53.8471 11.7385C55.0129 11.6426 55.3563 10.7403 55.2445 9.43064L54.8772 4.96671L56.4024 4.83894L56.8097 9.77402C56.9854 11.8423 55.8993 12.7926 53.9429 12.9523C51.9944 13.112 50.7646 12.3534 50.5969 10.2931L50.1897 5.358V5.36599Z" fill="white"/>
  <path d="M61.6653 4.97468L63.5339 5.23022L65.6421 11.3631H65.6661L66.4407 5.62151L67.894 5.82115L66.8559 13.4953L65.0033 13.2477L62.8791 7.11481H62.8551L62.0805 12.8484L60.6272 12.6568L61.6573 4.98267L61.6653 4.97468Z" fill="white"/>
  <path d="M72.6363 7.08326L74.0977 7.53843L71.7819 14.9251L70.3205 14.4619L72.6363 7.07527V7.08326Z" fill="white"/>
  <path d="M78.0826 8.91218L79.5519 9.65484L78.5537 15.9634H78.5777L83.0496 11.4197L84.4071 12.1064L78.6176 17.856L76.9406 17.0095L78.0906 8.91218H78.0826Z" fill="white"/>
  <path d="M88.1291 14.63L91.6827 17.4089L90.932 18.3672L88.5843 16.5385L87.4104 18.0398L89.5505 19.7168L88.7999 20.683L86.6518 19.006L85.3102 20.7229L87.6739 22.5676L86.9233 23.5259L83.3537 20.7389L88.1211 14.6379L88.1291 14.63Z" fill="white"/>
  <path d="M95.2602 20.754L96.3462 21.9917C97.4322 23.2295 98.7578 24.6589 97.1448 26.0883C96.458 26.6873 95.4997 26.7272 94.7491 26.0883H94.7331C94.9807 26.4317 94.8289 26.8949 94.6692 27.2383L93.1999 30.161L92.0739 28.8753L93.2877 26.5914C93.5752 26.0484 93.6151 25.7529 93.1919 25.2738L92.8725 24.9065L90.4529 27.0226L89.4387 25.8727L95.2602 20.77V20.754ZM93.7828 24.084L94.1102 24.4593C94.6053 25.0263 95.2602 25.6012 95.9868 24.9624C96.6896 24.3475 96.1785 23.6527 95.6754 23.0778L95.34 22.7025L93.7748 24.076L93.7828 24.084Z" fill="white"/>
  <path d="M102.487 33.0362C102.423 32.5172 102.255 31.9901 101.984 31.527C101.712 31.0718 101.169 30.6086 100.443 31.0398C99.2848 31.7266 101.481 34.3219 99.2449 35.6395C97.7836 36.502 96.5538 35.6874 95.7712 34.3618C95.348 33.6431 95.2521 33.2678 95.0285 32.5252L96.3062 31.9342C96.3302 32.5331 96.4739 33.148 96.7774 33.6671C97.0728 34.1702 97.7277 34.6812 98.3266 34.3219C99.6043 33.5713 97.3683 30.9999 99.5723 29.6983C101.058 28.8199 102.279 29.6344 102.966 30.7923C103.302 31.3593 103.533 31.9262 103.661 32.5012L102.495 33.0282L102.487 33.0362Z" fill="white"/>
  <path d="M105.881 36.8936L106.464 38.3151L99.2929 41.2378L98.718 39.8243L105.889 36.8936H105.881Z" fill="white"/>
  <path d="M107.215 44.5592L106.688 42.435L107.877 42.1475L109.291 47.8892L108.109 48.1766L107.582 46.0525L101.249 47.6097L100.882 46.1243L107.215 44.5672V44.5592Z" fill="white"/>
  <path d="M105.354 54.5328L109.874 51.4903L109.978 53.2791L106.832 55.2595L110.186 56.9205L110.273 58.5416L105.45 56.066L102.392 56.2337L102.312 54.7005L105.37 54.5328H105.354Z" fill="white"/>
  <path d="M13.5678 67.9249L14.7576 72.0454L13.5837 72.3888L12.8251 69.7536L10.9964 70.2806L11.7151 72.7881L10.5412 73.1315L9.82253 70.624L6.55644 71.5663L6.12522 70.081L13.5678 67.9329V67.9249Z" fill="white"/>
  <path d="M17.1934 77.4196C18.2635 79.5916 17.3931 81.5401 15.2849 82.5702C13.1847 83.6084 11.0845 83.1452 10.0064 80.9492C8.9124 78.7292 9.82275 76.8286 11.9549 75.7825C14.087 74.7364 16.1074 75.2235 17.1934 77.4196ZM11.1004 80.4141C11.7952 81.8356 13.3204 81.7397 14.5742 81.1248C15.8039 80.5259 16.7782 79.3441 16.0994 77.9626C15.4286 76.5891 13.8954 76.637 12.6656 77.2359C11.4119 77.8508 10.4057 79.0007 11.1004 80.4141Z" fill="white"/>
  <path d="M20.4912 83.5128L21.4575 84.7266L17.9598 87.5055C16.9217 88.3281 16.5064 89.1905 17.2491 90.1168C17.9837 91.0511 18.926 90.8355 19.9562 90.013L23.4538 87.234L24.4201 88.4478L20.5471 91.5223C18.926 92.8159 17.5286 92.4326 16.2908 90.8834C15.061 89.3342 14.9971 87.8729 16.6262 86.5872L20.4992 83.5128H20.4912Z" fill="white"/>
  <path d="M26.8397 90.9317L28.317 92.1375L26.9275 98.4781H26.9435L30.6089 94.0141L31.7588 94.9484L26.8557 100.946L25.3943 99.7478L26.7758 93.3913H26.7598L23.0945 97.8552L21.9446 96.9209L26.8477 90.9317H26.8397Z" fill="white"/>
  <path d="M34.6974 96.8497L36.59 97.8C38.6982 98.862 40.2154 100.515 38.8339 103.262C37.4604 106.009 35.2244 105.778 33.1163 104.715L31.2317 103.773L34.7054 96.8497H34.6974ZM33.1482 103.374L33.9228 103.765C35.0807 104.34 36.6299 104.045 37.3885 102.535C38.1472 101.034 37.4684 99.6047 36.3105 99.0218L35.5359 98.6305L33.1562 103.374H33.1482Z" fill="white"/>
  <path d="M43.6496 100.834L48.0496 102.008L47.7382 103.182L44.8314 102.407L44.3443 104.252L47.0035 104.963L46.6921 106.137L44.0329 105.426L43.4739 107.526L46.4046 108.309L46.0932 109.491L41.6692 108.309L43.6656 100.826L43.6496 100.834Z" fill="white"/>
  <path d="M51.459 102.615L53.5671 102.734C55.9309 102.862 57.9672 103.78 57.7995 106.847C57.6238 109.913 55.4917 110.592 53.1279 110.464L51.0197 110.345L51.459 102.607V102.615ZM52.6328 109.219L53.4953 109.266C54.7889 109.338 56.0906 108.444 56.1864 106.759C56.2822 105.074 55.0844 104.044 53.7987 103.972L52.9363 103.924L52.6328 109.219Z" fill="white"/>
  <path d="M65.6653 102.055L67.3742 101.688L71.9659 108.619L70.289 108.986L69.2668 107.389L66.2083 108.052L65.9209 109.929L64.3557 110.264L65.6653 102.063V102.055ZM66.8232 103.396H66.7993L66.376 106.758L68.58 106.287L66.8152 103.396H66.8232Z" fill="white"/>
  <path d="M73.6916 106.288L75.145 105.761L75.672 107.222L74.2187 107.749L73.6916 106.288Z" fill="white"/>
  <path d="M75.6557 98.9573L77.5083 97.9512C79.5925 96.8172 81.8045 96.5297 83.2739 99.2288C84.7352 101.936 83.2739 103.629 81.1976 104.755L79.337 105.761L75.6477 98.9573H75.6557ZM80.1276 103.948L80.8862 103.541C82.0201 102.918 82.659 101.481 81.8604 99.9955C81.0539 98.5101 79.4967 98.2546 78.3628 98.8775L77.6041 99.2847L80.1356 103.94L80.1276 103.948Z" fill="white"/>
  <path d="M85.5179 100.394L86.7956 99.5078L87.682 100.786L86.4123 101.672L85.5259 100.394H85.5179Z" fill="white"/>
  <path d="M88.7116 89.7982L89.6858 88.8399L95.124 94.3579L94.022 95.444L89.8216 91.1877L89.6379 92.8567L88.3762 92.681L88.7036 89.7982H88.7116Z" fill="white"/>
  <path d="M95.6512 87.5777C94.9086 87.993 94.0941 88.0249 93.4392 87.5458C92.3293 86.7233 92.4251 85.4855 93.2556 84.3595C94.0621 83.2655 95.244 82.6187 96.2901 83.3853C96.8571 83.8085 97.2484 84.631 97.0168 85.5174H97.0248C98.015 84.9904 98.8295 85.0143 99.5402 85.5414C100.802 86.4677 100.682 87.7853 99.7718 89.0151C98.8774 90.2209 97.6237 90.8119 96.362 89.8775C95.6672 89.3665 95.4756 88.6158 95.6592 87.6017L95.6433 87.5857L95.6512 87.5777ZM96.0186 86.1004C96.1464 85.6612 96.0186 85.0223 95.6273 84.7428C95.1641 84.3915 94.6211 84.4554 94.2777 84.9265C93.9423 85.3817 93.8545 86.0125 94.3576 86.3879C94.8926 86.7791 95.5474 86.4118 96.0186 86.1004ZM98.8455 88.3283C99.2208 87.8332 99.1889 87.2104 98.6778 86.8271C98.0629 86.3719 97.3761 86.6833 96.8251 87.0666C96.7133 87.6735 96.7373 88.2245 97.2643 88.6158C97.7834 88.9991 98.4781 88.8234 98.8455 88.3283Z" fill="white"/>
  <path d="M99.787 76.3095C99.4436 76.597 99.1401 76.9084 98.9086 77.3716C98.3176 78.5614 99.22 79.5277 100.234 80.0867L100.266 80.0707C99.9547 79.5037 99.9467 78.9767 100.234 78.3857C100.889 77.0841 102.079 76.7806 103.357 77.4195C104.858 78.1701 105.481 79.3999 104.706 80.9571C103.748 82.8816 101.935 82.5063 100.306 81.6917C98.4214 80.7574 96.6646 79.1204 97.7826 76.8844C98.0301 76.3814 98.3496 75.9421 98.7568 75.5509L99.787 76.2935V76.3095ZM101.967 80.7974C102.622 81.1248 103.333 81.1328 103.676 80.454C104.003 79.8151 103.508 79.2322 102.893 78.9287C102.215 78.5933 101.456 78.5534 101.121 79.2242C100.785 79.895 101.272 80.462 101.967 80.8054V80.7974Z" fill="white"/>
  <path d="M102.375 68.0537L101.528 70.9125L103.102 71.4156C103.118 71.2319 103.141 71.0004 103.229 70.7209C103.541 69.6827 104.427 68.4769 106.352 69.0519C107.741 69.4671 108.58 70.7768 108.013 72.6853C107.845 73.2603 107.55 73.8991 107.286 74.3543L105.968 73.9231C106.224 73.6116 106.599 73.1645 106.791 72.5256C107.022 71.751 106.903 70.8327 105.952 70.5532C104.994 70.2657 104.411 71.0163 104.164 71.8628C104.028 72.318 103.964 72.7732 103.972 73.2523L100.003 71.9906L101.265 67.7423L102.367 68.0697L102.375 68.0537Z" fill="white"/>
</svg>
